<svg
  width="24"
  height="24"
  viewBox="0 0 24 24"
  fill="none"
  xmlns="http://www.w3.org/2000/svg"
>
  <path
    d="M12.0023 22.0051H11.5723C9.05719 21.8611 6.68527 20.7878 4.91688 18.9936C3.14849 17.1993 2.10977 14.812 2.00231 12.2951C1.95135 10.5985 2.3331 8.9168 3.11159 7.40847C3.89008 5.90014 5.0397 4.61479 6.45216 3.67348C7.86462 2.73217 9.49345 2.16589 11.1852 2.02796C12.877 1.89003 14.576 2.185 16.1223 2.88509C16.3017 2.96955 16.4623 3.08919 16.5946 3.23693C16.7269 3.38466 16.8281 3.55747 16.8923 3.74509C16.9555 3.93506 16.9792 4.13594 16.9621 4.33541C16.9449 4.53488 16.8871 4.72874 16.7923 4.90509L15.5023 7.28509C15.3317 7.60045 15.0496 7.84082 14.7111 7.95918C14.3727 8.07754 14.0023 8.06539 13.6723 7.92509C12.8406 7.59825 11.9305 7.52642 11.0578 7.71876C10.1852 7.9111 9.38953 8.3589 8.77231 9.00509C8.35899 9.45167 8.04256 9.97894 7.84293 10.5538C7.6433 11.1286 7.56478 11.7385 7.61231 12.3451C7.6719 12.9314 7.84973 13.4995 8.13504 14.0151C8.42035 14.5307 8.80724 14.9832 9.27231 15.3451C9.7485 15.7387 10.3003 16.0305 10.8937 16.2025C11.4871 16.3745 12.1094 16.423 12.7223 16.3451C13.2441 16.275 13.7463 16.0997 14.1983 15.8298C14.6504 15.56 15.043 15.2011 15.3523 14.7751H12.4523C12.0695 14.7751 11.7022 14.6237 11.4305 14.3539C11.1589 14.0842 11.005 13.7179 11.0023 13.3351V10.6551C11.0023 10.2705 11.1551 9.90171 11.427 9.62979C11.6989 9.35786 12.0677 9.20509 12.4523 9.20509H20.5523C20.9344 9.20767 21.3002 9.3599 21.5712 9.62912C21.8423 9.89833 21.9971 10.2631 22.0023 10.6451V12.5251C21.869 15.0861 20.7568 17.498 18.8957 19.2623C17.0346 21.0267 14.5668 22.0086 12.0023 22.0051ZM12.0023 4.00509C10.9312 4.00461 9.87096 4.21921 8.88438 4.63618C7.89779 5.05314 7.00498 5.66397 6.25888 6.43244C5.51279 7.20092 4.92861 8.11139 4.54098 9.10987C4.15336 10.1083 3.97018 11.1745 4.00231 12.2451C4.08831 14.2569 4.91873 16.1649 6.33236 17.5989C7.74598 19.0328 9.64198 19.8904 11.6523 20.0051C13.763 20.1003 15.8257 19.3567 17.3901 17.9366C18.9545 16.5165 19.8935 14.5351 20.0023 12.4251V11.2051H13.0023V12.7851H18.3123L17.9023 14.0851C17.5787 15.1886 16.9448 16.1758 16.0761 16.9293C15.2074 17.6828 14.1405 18.1707 13.0023 18.3351C12.1223 18.4628 11.2255 18.4107 10.3661 18.1821C9.50673 17.9536 8.70261 17.5531 8.00231 17.0051C7.31229 16.4638 6.74228 15.785 6.32844 15.0118C5.91459 14.2385 5.66594 13.3877 5.59824 12.5133C5.53054 11.6389 5.64529 10.76 5.93519 9.93231C6.22509 9.1046 6.68383 8.34616 7.28231 7.70509C8.11933 6.80295 9.19457 6.15611 10.3837 5.83935C11.5729 5.52259 12.8274 5.54885 14.0023 5.91509L14.7723 4.48509C13.8851 4.16077 12.9469 3.9982 12.0023 4.00509Z"
    fill="#3C4450"
  />
</svg>
